<svg viewBox="0 0 1024 1024" xmlns="http://www.w3.org/2000/svg">
	<path
		d="M783.7184 316.3648v310.8352c85.8624 0 155.4432-69.5808 155.4432-155.4432 0-85.8112-69.5808-155.392-155.4432-155.392zM241.664 945.8688h-10.0352c-42.24 0-76.4928-34.2528-76.4928-76.4928v-214.4768h163.072v214.4768c0 42.24-34.304 76.4928-76.544 76.4928z"
		fill="#FFE37B"
	/>
	<path
		d="M379.4432 688.1792H213.8112c-64.768 0-117.248-55.04-117.248-122.9312V357.632c0-67.8912 52.48-122.9312 117.248-122.9312h165.632L716.8 78.4384c35.6864-16.5376 75.776 10.8544 75.776 51.7632v668.9792c0 41.2672-40.7552 68.6592-76.544 51.4048l-336.5888-162.4064z"
		fill="#8C7BFD"
	/>
	<path
		d="M318.9248 234.752v453.4272h60.5184l48.5888 23.4496V212.224l-48.5888 22.528z"
		fill="#FFE37B"
	/>
</svg>
