<svg viewBox="0 0 1024 1024" xmlns="http://www.w3.org/2000/svg">
	<path
		d="M540.111537 612.874552c-23.107674 0-42.665572 29.114986-42.665571 63.930093 0 34.610312 19.557898 63.89596 42.665571 63.89596s42.699704-29.183251 42.699704-63.964225c0-34.746841-19.557898-63.930092-42.665571-63.930093l-0.034133 0.068265z m248.313627-431.195332a31.162933 31.162933 0 0 0-29.900033-9.625353c-10.854121 2.594067-19.796825 10.922386-23.89272 22.254362a1688.737456 1688.737456 0 0 0-25.360416 80.996321c-10.922386-22.663952-23.210071-44.406327-36.863053-65.192994-50.379507-76.763896-119.4636-141.922757-217.355488-205.067803a30.958139 30.958139 0 0 0-31.572523-1.331166 36.180405 36.180405 0 0 0-17.953673 28.32994C391.908408 165.363905 366.855184 300.494303 281.250981 395.621462l-11.366108-24.234045c-10.00081-20.957329-19.353103-40.685889-25.360416-57.581455-6.485167-18.602189-25.496946-27.92035-42.460777-20.820799a34.16659 34.16659 0 0 0-17.544083 17.305156l-6.894756 14.676956C135.607786 414.052989 78.162861 536.247186 69.493216 639.566134c-17.987805 218.993846 163.869927 356.615914 352.997874 379.48466 41.5392 5.017471 83.283196 6.143842 124.993058 3.583908 148.715116-9.693618 329.378213-93.079211 390.270516-298.317677 39.422988-133.218981 24.02925-355.148218-149.3295-542.70607v0.034132zM400.851112 775.788771c0 17.305156-12.936201 31.401861-28.841927 31.40186-15.871593 0.068265-28.739529-13.994307-28.807794-31.40186v-71.336836l-59.390475 1.023974v72.053617c0 17.271023-12.936201 31.401861-28.841927 31.401861-15.83746 0.068265-28.773661-13.994307-28.841926-31.401861v-192.882516c0-17.339288 12.902069-31.401861 28.841926-31.401861 15.905725 0 28.807794 14.062572 28.807794 31.401861v57.991045l59.424608-0.989841v-58.707827c0-17.339288 12.902069-31.435993 28.807794-31.435993 15.905725 0 28.807794 14.096705 28.807794 31.401861v192.848383h0.034133z m139.260425 27.579025c-55.294581 0-100.212895-56.864674-100.212894-126.733814s44.918314-126.733814 100.212894-126.733813c55.294581 0 100.349424 56.864674 100.349425 126.733813-0.068265 69.86914-45.054844 126.733814-100.349425 126.733814z m261.249828-183.735017h-36.624126v154.449369c0 17.305156-12.867936 31.401861-28.773662 31.401861-15.871593 0.068265-28.773661-13.994307-28.876059-31.401861v-154.449369h-36.555862a26.964641 26.964641 0 0 1-20.274679-9.181631 34.268987 34.268987 0 0 1-8.533114-22.322627c0-17.339288 12.902069-31.401861 28.807793-31.401861h130.727312c15.905725 0 28.773661 14.062572 28.773661 31.401861a33.722868 33.722868 0 0 1-8.533114 22.322627 26.384389 26.384389 0 0 1-20.13815 9.215763z"
		fill="#F74343"
	/>
</svg>
