<svg viewBox="0 0 1024 1024" xmlns="http://www.w3.org/2000/svg">
	<path
		d="M971.082488 912.813419h-52.65342V273.143742c0-18.72929-10.405161-35.11329-26.326709-43.272258l-262.606452-146.332903a52.983742 52.983742 0 0 0-46.046968 0c-16.450065 7.035871-26.855226 23.981419-26.326709 116.471742v785.936516h-52.620387V122.15329c0-94.802581 0-108.84129-19.753291-116.438709a63.554065 63.554065 0 0 0-52.620387 0l-300.428387 169.125161c-15.921548 8.192-26.32671 25.765161-26.32671 44.461419v694.106839H52.752681c-13.179871 0-19.75329 7.597419-19.75329 14.600258v81.358452c0 7.035871 6.606452 14.63329 19.75329 14.63329h918.296774c6.044903 0 18.663226-7.597419 19.753291-14.63329v-80.763871c1.651613-8.786581-12.618323-15.789419-19.720258-15.78942zM354.271133 809.818839c0 8.192-6.011871 14.63329-13.708387 14.63329h-73.992258c-7.696516 0-13.708387-6.44129-13.708387-14.63329v-68.475871c0-8.192 6.011871-14.63329 13.708387-14.633291h75.643871c7.663484 0 13.708387 6.44129 13.708387 14.633291l-1.651613 68.475871z m0-206.583742c0 8.192-6.011871 14.63329-13.708387 14.63329h-73.992258c-7.696516 0-13.708387-6.44129-13.708387-14.63329v-69.665032c0-8.192 6.011871-14.63329 13.708387-14.633291h75.643871c7.663484 0 13.708387 6.44129 13.708387 14.633291l-1.651613 69.665032z m0-206.022194c0 8.192-6.011871 14.63329-13.708387 14.633291h-73.992258c-7.696516 0-13.708387-6.44129-13.708387-14.633291V327.019355c0-8.192 6.011871-14.63329 13.708387-14.63329h75.643871c7.663484 0 13.708387 6.44129 13.708387 14.63329l-1.651613 70.22658z m432.590452 412.011355c0 8.192-6.044903 14.63329-13.708388 14.63329h-75.643871c-7.696516 0-13.741419-6.44129-13.741419-14.63329v-69.037419c0-8.225032 6.044903-14.666323 13.708387-14.666323h75.643871c7.696516 0 13.741419 6.44129 13.74142 14.63329v69.03742z m0-206.583742c0 8.192-6.044903 14.63329-13.708388 14.63329h-75.643871c-7.696516 0-13.741419-6.44129-13.741419-14.63329v-69.037419c0-8.225032 6.044903-14.666323 13.708387-14.666323h75.643871c7.696516 0 13.741419 6.44129 13.74142 14.633291v69.037419z m0-205.989161c0 8.192-6.044903 14.600258-13.708388 14.600258h-75.643871c-7.696516 0-13.741419-6.408258-13.741419-14.600258V326.986323c0-8.192 6.044903-14.63329 13.708387-14.633291h75.643871c7.696516 0 13.741419 6.44129 13.74142 14.633291v69.665032z"
		fill="#57C59C"
	/>
</svg>
