<svg t="1776853922515" class="icon" viewBox="0 0 1024 1024" version="1.1" xmlns="http://www.w3.org/2000/svg" p-id="4017" width="200" height="200"><path d="M760.1 211.3H657.9v-36.2c0-17.5-14.3-31.9-31.9-31.9H437.5c-17.5 0-31.9 14.3-31.9 31.9v36.2H303.4c-40.9 0-74.3 33.5-74.3 74.3v499.2c0 40.9 33.5 74.3 74.3 74.3h456.7c40.9 0 74.3-33.5 74.3-74.3V285.7c0-40.9-33.4-74.4-74.3-74.4z" fill="#FFE4B3" p-id="4018"></path><path d="M728.2 843.3H271.5c-49.8 0-90.3-40.5-90.3-90.3V253.8c0-49.8 40.5-90.3 90.3-90.3h98.9v31.9h-98.9c-32.2 0-58.4 26.2-58.4 58.4V753c0 32.2 26.2 58.4 58.4 58.4h456.7c32.2 0 58.4-26.2 58.4-58.4V253.8c0-32.2-26.2-58.4-58.4-58.4h-97.6v-31.9h97.6c49.8 0 90.3 40.5 90.3 90.3V753c0 49.8-40.5 90.3-90.3 90.3z" fill="#EFA716" p-id="4019"></path><path d="M594.1 268.8H405.6c-26.4 0-47.8-21.4-47.8-47.8v-77.8c0-26.4 21.4-47.8 47.8-47.8h188.5c26.4 0 47.8 21.4 47.8 47.8V221c0 26.4-21.4 47.8-47.8 47.8zM405.6 127.3c-8.8 0-15.9 7.1-15.9 15.9V221c0 8.8 7.1 15.9 15.9 15.9h188.5c8.8 0 15.9-7.1 15.9-15.9v-77.8c0-8.8-7.1-15.9-15.9-15.9H405.6z" fill="#EFA716" p-id="4020"></path><path d="M341.4 405.8h-19.8c-11.7 0-21.2-9.6-21.2-21.2v-4.3c0-11.7 9.6-21.2 21.2-21.2h19.8c11.7 0 21.2 9.6 21.2 21.2v4.3c0.1 11.6-9.5 21.2-21.2 21.2zM678.2 405.8H412c-11.7 0-21.2-9.6-21.2-21.2v-4.3c0-11.7 9.6-21.2 21.2-21.2h266.2c11.7 0 21.2 9.6 21.2 21.2v4.3c0 11.6-9.6 21.2-21.2 21.2z" fill="#EFA716" p-id="4021"></path><path d="M341.4 510h-19.8c-11.7 0-21.2-9.6-21.2-21.2v-4.3c0-11.7 9.6-21.2 21.2-21.2h19.8c11.7 0 21.2 9.6 21.2 21.2v4.3c0.1 11.6-9.5 21.2-21.2 21.2zM678.2 510H412c-11.7 0-21.2-9.6-21.2-21.2v-4.3c0-11.7 9.6-21.2 21.2-21.2h266.2c11.7 0 21.2 9.6 21.2 21.2v4.3c0 11.6-9.6 21.2-21.2 21.2zM678 614.2H321.8c-11.7 0-21.2-9.6-21.2-21.2v-4.3c0-11.7 9.6-21.2 21.2-21.2H678c11.7 0 21.2 9.6 21.2 21.2v4.3c0 11.6-9.6 21.2-21.2 21.2z" fill="#EFA716" p-id="4022"></path></svg>
