<svg t="1776854001330" class="icon" viewBox="0 0 1024 1024" version="1.1" xmlns="http://www.w3.org/2000/svg" p-id="18844" width="200" height="200"><path d="M512 507.5456c-16.4352 0-32.6144 1.1264-48.4352 3.2256-111.616 59.3408-187.5968 176.7936-187.5968 312.0128 0 16.5888 1.2288 32.8704 3.4304 48.8448 184.6784 47.8208 563.968 31.0784 563.968-65.6384 0-164.864-148.3776-298.4448-331.3664-298.4448z" fill="#ffe048" p-id="18845"></path><path d="M512 476.672c-101.2224 0-183.552-82.3296-183.552-183.552S410.7776 109.6192 512 109.6192s183.552 82.3296 183.552 183.552S613.2224 476.672 512 476.672z m0-326.0928c-78.592 0-142.592 63.9488-142.592 142.592S433.408 435.712 512 435.712s142.592-63.9488 142.592-142.592-64-142.5408-142.592-142.5408zM524.0832 917.9136c-37.2736 0-363.9296-3.1232-363.9296-111.9744 0-175.8208 157.8496-318.8736 351.8464-318.8736s351.8464 143.0528 351.8464 318.8736c0 39.8336-38.5024 69.7856-114.4832 88.9856-58.624 14.7968-138.6496 22.9888-225.28 22.9888zM512 528.0256c-171.4176 0-310.8864 124.672-310.8864 277.9136 0 29.6448 122.88 71.0144 322.9696 71.0144 83.3536 0 159.7952-7.7312 215.1936-21.7088 61.6448-15.5648 83.6096-35.6864 83.6096-49.2544 0-153.2928-139.4688-277.9648-310.8864-277.9648z" fill="#55524F" p-id="18846"></path></svg>
